Coordinates
version=1
nRows=9
nColumns=63
inDegrees=yes

Units are S.I. units (second, meters, Newtons, ...)
If the header above contains a line with 'inDegrees', this indicates whether rotational values are in degrees (yes) or radians (no).

endheader
time	pelvis_tilt	pelvis_list	pelvis_rotation	pelvis_tx	pelvis_ty	pelvis_tz	hip_flexion_r	hip_adduction_r	hip_rotation_r	knee_angle_r	knee_angle_r_beta	ankle_angle_r	subtalar_angle_r	mtp_angle_r	hip_flexion_l	hip_adduction_l	hip_rotation_l	knee_angle_l	knee_angle_l_beta	ankle_angle_l	subtalar_angle_l	mtp_angle_l	L5_S1_Flex_Ext	L5_S1_Lat_Bending	L5_S1_axial_rotation	L4_L5_Flex_Ext	L4_L5_Lat_Bending	L4_L5_axial_rotation	L3_L4_Flex_Ext	L3_L4_Lat_Bending	L3_L4_axial_rotation	L2_L3_Flex_Ext	L2_L3_Lat_Bending	L2_L3_axial_rotation	L1_L2_Flex_Ext	L1_L2_Lat_Bending	L1_L2_axial_rotation	L1_T12_Flex_Ext	L1_T12_Lat_Bending	L1_T12_axial_rotation	Abs_r3	Abs_r2	Abs_r1	Abs_t1	Abs_t2	neck_flexion	neck_bending	neck_rotation	arm_flex_r	arm_add_r	arm_rot_r	elbow_flex_r	pro_sup_r	wrist_flex_r	wrist_dev_r	arm_flex_l	arm_add_l	arm_rot_l	elbow_flex_l	pro_sup_l	wrist_flex_l	wrist_dev_l
2.283333	1.332079	-2.787385	89.531715	0.088035	0.684859	0.733671	-8.732950	0.101822	6.833339	5.139840	0.089707	30.220774	-2.186850	0.000000	-5.898712	0.476499	-10.437266	10.144340	0.177052	32.765552	3.166919	0.000000	-0.112175	-0.186664	1.250248	-0.208321	-0.248264	1.328389	-0.184293	-0.453856	1.328389	-0.128205	-0.453856	1.093967	-0.104166	-0.380646	1.015827	-0.064097	-0.289143	0.937686	-0.801258	-2.111585	6.953506	0.000000	0.000000	13.988545	-0.304050	-16.365224	4.913882	-13.497051	47.713429	68.943300	89.176427	17.803614	22.868331	16.579898	-15.050715	62.540085	69.987786	88.904090	19.340225	23.103475
2.300000	1.355572	-2.733760	89.629892	0.087697	0.684954	0.733792	-8.689266	0.121510	6.313880	5.318755	0.092830	30.476437	-1.628799	0.000000	-5.944352	0.445297	-10.435004	10.118783	0.176606	32.789318	3.283587	0.000000	-0.119263	-0.181321	1.181841	-0.221482	-0.241157	1.255706	-0.195936	-0.440864	1.255706	-0.136305	-0.440864	1.034111	-0.110747	-0.369750	0.960246	-0.068147	-0.280867	0.886381	-0.851881	-2.051142	6.573047	0.000000	0.000000	13.836197	-0.200984	-16.036096	5.458781	-13.596876	48.590206	68.850210	89.257852	17.939420	23.341430	16.316156	-15.093980	61.993629	70.042984	88.914941	19.949599	23.084964
2.316667	1.374964	-2.673177	89.738775	0.087340	0.685043	0.733941	-8.655394	0.142582	5.880954	5.500831	0.096008	30.684679	-1.219087	0.000000	-6.004706	0.429394	-10.290743	10.079463	0.175920	32.729102	3.223463	0.000000	-0.126684	-0.176984	1.109653	-0.235265	-0.235389	1.179007	-0.208129	-0.430319	1.179007	-0.144787	-0.430319	0.970947	-0.117639	-0.360906	0.901593	-0.072387	-0.274148	0.832240	-0.904892	-2.002080	6.171559	0.000000	0.000000	13.702571	-0.098230	-15.705737	5.983028	-13.673398	49.407131	68.734886	89.326405	18.043031	23.750871	16.047116	-15.144450	61.424364	70.102105	88.927049	20.593226	23.028440
2.333333	1.392885	-2.607352	89.838949	0.087012	0.685136	0.734105	-8.627322	0.165733	5.549013	5.689674	0.099304	30.836588	-0.957360	0.000000	-6.080540	0.407988	-10.238099	10.030338	0.175062	32.637036	3.276140	0.000000	-0.134160	-0.173636	1.041398	-0.249148	-0.230936	1.106485	-0.220411	-0.422179	1.106485	-0.153331	-0.422179	0.911223	-0.124581	-0.354079	0.846136	-0.076659	-0.268963	0.781049	-0.958289	-1.964209	5.791943	0.000000	0.000000	13.579608	0.003842	-15.414549	6.452267	-13.730928	50.113800	68.607443	89.379798	18.083358	24.024046	15.791408	-15.199430	60.872542	70.159524	88.940008	21.207595	22.901222
2.350000	1.405383	-2.540698	89.945974	0.086691	0.685230	0.734270	-8.609832	0.192553	5.337333	5.871575	0.102478	30.914642	-0.898084	0.000000	-6.163923	0.389711	-10.183080	9.972370	0.174051	32.508032	3.341766	0.000000	-0.141405	-0.171710	0.980038	-0.262603	-0.228374	1.041290	-0.232314	-0.417496	1.041290	-0.161612	-0.417496	0.857533	-0.131309	-0.350151	0.796281	-0.080799	-0.265979	0.735028	-1.010042	-1.942418	5.450676	0.000000	0.000000	13.469601	0.103059	-15.190398	6.824104	-13.771934	50.648532	68.486329	89.413678	18.002886	24.112331	15.579807	-15.252957	60.403963	70.208277	88.951416	21.727014	22.685294
2.366667	1.413944	-2.479573	90.053751	0.086386	0.685324	0.734417	-8.597889	0.219797	5.238664	6.041736	0.105448	30.919845	-1.021599	0.000000	-6.248828	0.374532	-10.126361	9.906374	0.172899	32.348832	3.414604	0.000000	-0.147682	-0.171047	0.930829	-0.274260	-0.227492	0.989005	-0.242626	-0.415883	0.989005	-0.168786	-0.415883	0.814475	-0.137137	-0.348799	0.756298	-0.084385	-0.264951	0.698122	-1.054876	-1.934916	5.176990	0.000000	0.000000	13.369343	0.196553	-15.060081	7.060111	-13.799904	50.958882	68.386058	89.423761	17.768999	23.951477	15.412996	-15.287257	60.013590	70.234379	88.961181	22.184525	22.400902
2.383333	1.421352	-2.429267	90.162026	0.086093	0.685416	0.734528	-8.588370	0.250614	5.216312	6.194145	0.108108	30.856763	-1.277631	0.000000	-6.329401	0.359313	-10.066767	9.835196	0.171657	32.167393	3.494837	0.000000	-0.152600	-0.171124	0.898111	-0.283393	-0.227595	0.954243	-0.250706	-0.416070	0.954243	-0.174406	-0.416070	0.785847	-0.141704	-0.348956	0.729715	-0.087196	-0.265071	0.673583	-1.090005	-1.935786	4.995026	0.000000	0.000000	13.287615	0.272731	-15.045754	7.122425	-13.808505	50.969746	68.320660	89.411478	17.435477	23.562610	15.321066	-15.301283	59.776428	70.239078	88.964874	22.468263	22.018460
2.400000	1.430109	-2.397252	90.253329	0.085828	0.685498	0.734587	-8.567803	0.280116	5.213493	6.335812	0.110581	30.749975	-1.559634	0.000000	-6.401947	0.342211	-10.056456	9.757340	0.170298	31.976785	3.633564	0.000000	-0.155269	-0.171174	0.883311	-0.288349	-0.227661	0.938518	-0.255091	-0.416193	0.938518	-0.177456	-0.416193	0.772897	-0.144182	-0.349058	0.717690	-0.088720	-0.265149	0.662483	-1.109067	-1.936355	4.912712	0.000000	0.000000	13.238990	0.321262	-15.125684	7.016574	-13.806846	50.701926	68.297321	89.380607	17.004255	22.956956	15.279576	-15.293513	59.660447	70.223944	88.965452	22.553029	21.535982
2.416667	1.439314	-2.387514	90.356106	0.085554	0.685554	0.734588	-8.539655	0.314634	5.278201	6.458527	0.112723	30.579701	-1.965355	0.000000	-6.456430	0.323658	-10.025426	9.679731	0.168943	31.776569	3.771155	0.000000	-0.155380	-0.171312	0.882521	-0.288557	-0.227845	0.937678	-0.255274	-0.416528	0.937678	-0.177584	-0.416528	0.772206	-0.144286	-0.349340	0.717048	-0.088784	-0.265363	0.661891	-1.109865	-1.937918	4.908316	0.000000	0.000000	13.245876	0.341787	-15.299469	6.741959	-13.798927	50.168314	68.323215	89.334504	16.472458	22.163542	15.319940	-15.274523	59.729601	70.197259	88.966889	22.403093	20.944140
